<svg width="22" height="19" viewBox="0 0 22 19" fill="none" xmlns="http://www.w3.org/2000/svg">
<path d="M1.5 9.63437L0.803642 9.35583C0.732119 9.53464 0.732119 9.7341 0.803642 9.91291L1.5 9.63437ZM20.5 9.63437L21.1964 9.91292C21.2679 9.73411 21.2679 9.53464 21.1964 9.35583L20.5 9.63437ZM11 15.6701C7.88611 15.6701 5.69881 14.1211 4.26282 12.5255C3.5443 11.7271 3.02342 10.9262 2.68265 10.3249C2.51269 10.0249 2.3887 9.77672 2.30828 9.60613C2.26809 9.52089 2.23887 9.45522 2.22031 9.41237C2.21103 9.39095 2.20441 9.37526 2.20043 9.36569C2.19844 9.36091 2.19711 9.35766 2.19643 9.356C2.1961 9.35517 2.19592 9.35474 2.19591 9.35471C2.1959 9.35469 2.19594 9.35478 2.19601 9.35496C2.19605 9.35506 2.19614 9.35527 2.19615 9.35532C2.19625 9.35556 2.19636 9.35583 1.5 9.63437C0.803642 9.91291 0.80377 9.91323 0.803908 9.91358C0.803968 9.91373 0.804117 9.9141 0.804238 9.9144C0.804478 9.915 0.804762 9.9157 0.805087 9.91651C0.805739 9.91812 0.80656 9.92014 0.807552 9.92257C0.809535 9.92744 0.8122 9.93392 0.815553 9.94198C0.822258 9.95809 0.831716 9.9805 0.843972 10.0088C0.868477 10.0653 0.904198 10.1454 0.951487 10.2458C1.04601 10.4463 1.18709 10.7282 1.37761 11.0644C1.75782 11.7354 2.33962 12.6309 3.14788 13.529C4.76544 15.3263 7.32814 17.1701 11 17.1701V15.6701ZM1.5 9.63437C2.19636 9.91291 2.19625 9.91318 2.19615 9.91342C2.19614 9.91347 2.19605 9.91368 2.19601 9.91378C2.19594 9.91396 2.1959 9.91405 2.19591 9.91403C2.19592 9.914 2.1961 9.91357 2.19643 9.91274C2.19711 9.91108 2.19844 9.90783 2.20043 9.90305C2.20441 9.89348 2.21103 9.87779 2.22031 9.85637C2.23887 9.81352 2.26809 9.74785 2.30828 9.66261C2.3887 9.49202 2.51269 9.24379 2.68265 8.94386C3.02342 8.3425 3.5443 7.5416 4.26282 6.74324C5.69881 5.14768 7.88611 3.59866 11 3.59866V2.09866C7.32814 2.09866 4.76544 3.94249 3.14788 5.73979C2.33962 6.63786 1.75782 7.53338 1.37761 8.20434C1.18709 8.54057 1.04601 8.82248 0.951487 9.02298C0.904198 9.12329 0.868477 9.20341 0.843972 9.25996C0.831716 9.28824 0.822258 9.31065 0.815553 9.32676C0.8122 9.33482 0.809535 9.3413 0.807552 9.34617C0.80656 9.3486 0.805739 9.35062 0.805087 9.35223C0.804762 9.35304 0.804478 9.35374 0.804238 9.35434C0.804117 9.35464 0.803968 9.35501 0.803908 9.35516C0.80377 9.35551 0.803642 9.35583 1.5 9.63437ZM11 3.59866C14.1139 3.59866 16.3012 5.14768 17.7372 6.74324C18.4557 7.5416 18.9766 8.3425 19.3173 8.94386C19.4873 9.2438 19.6113 9.49202 19.6917 9.66261C19.7319 9.74785 19.7611 9.81352 19.7797 9.85637C19.789 9.87779 19.7956 9.89349 19.7996 9.90305C19.8016 9.90783 19.8029 9.91108 19.8036 9.91274C19.8039 9.91357 19.8041 9.91401 19.8041 9.91404C19.8041 9.91405 19.8041 9.91397 19.804 9.91378C19.804 9.91369 19.8039 9.91347 19.8038 9.91342C19.8037 9.91318 19.8036 9.91292 20.5 9.63437C21.1964 9.35583 21.1962 9.35551 21.1961 9.35516C21.196 9.35501 21.1959 9.35464 21.1958 9.35434C21.1955 9.35374 21.1952 9.35304 21.1949 9.35223C21.1943 9.35062 21.1934 9.34859 21.1924 9.34616C21.1905 9.3413 21.1878 9.33482 21.1844 9.32676C21.1777 9.31065 21.1683 9.28824 21.156 9.25996C21.1315 9.2034 21.0958 9.12329 21.0485 9.02298C20.954 8.82248 20.8129 8.54057 20.6224 8.20434C20.2422 7.53338 19.6604 6.63786 18.8521 5.73979C17.2345 3.94249 14.6718 2.09866 11 2.09866V3.59866ZM20.5 9.63437C19.8036 9.35583 19.8037 9.35556 19.8038 9.35532C19.8039 9.35527 19.804 9.35505 19.804 9.35496C19.8041 9.35477 19.8041 9.35469 19.8041 9.3547C19.8041 9.35473 19.8039 9.35517 19.8036 9.356C19.8029 9.35766 19.8016 9.36091 19.7996 9.36569C19.7956 9.37526 19.789 9.39095 19.7797 9.41237C19.7611 9.45522 19.7319 9.52089 19.6917 9.60613C19.6113 9.77672 19.4873 10.0249 19.3173 10.3249C18.9766 10.9262 18.4557 11.7271 17.7372 12.5255C16.3012 14.1211 14.1139 15.6701 11 15.6701V17.1701C14.6718 17.1701 17.2345 15.3263 18.8521 13.529C19.6604 12.6309 20.2422 11.7354 20.6224 11.0644C20.8129 10.7282 20.954 10.4463 21.0485 10.2458C21.0958 10.1455 21.1315 10.0653 21.156 10.0088C21.1683 9.9805 21.1777 9.9581 21.1844 9.94198C21.1878 9.93393 21.1905 9.92744 21.1924 9.92258C21.1934 9.92015 21.1943 9.91812 21.1949 9.91651C21.1952 9.9157 21.1955 9.915 21.1958 9.9144C21.1959 9.9141 21.196 9.91373 21.1961 9.91358C21.1962 9.91323 21.1964 9.91292 20.5 9.63437ZM11 11.5987C9.91515 11.5987 9.03571 10.7192 9.03571 9.63437H7.53571C7.53571 11.5476 9.08673 13.0987 11 13.0987V11.5987ZM12.9643 9.63437C12.9643 10.7192 12.0848 11.5987 11 11.5987V13.0987C12.9133 13.0987 14.4643 11.5476 14.4643 9.63437H12.9643ZM11 7.67008C12.0848 7.67008 12.9643 8.54953 12.9643 9.63437H14.4643C14.4643 7.7211 12.9133 6.17008 11 6.17008V7.67008ZM11 6.17008C9.08673 6.17008 7.53571 7.7211 7.53571 9.63437H9.03571C9.03571 8.54953 9.91515 7.67008 11 7.67008V6.17008Z" fill="#172765"/>
<line x1="4.80005" y1="15.995" x2="18.7948" y2="2.00028" stroke="white" stroke-width="3" stroke-linecap="round" stroke-linejoin="round"/>
<line x1="4.21948" y1="16.7876" x2="18.1588" y2="2.84821" stroke="#172765" stroke-width="1.5" stroke-linecap="round" stroke-linejoin="round"/>
</svg>
